<?xml version="1.0" encoding="UTF-8"?><svg id="Layer_1" xmlns="http://www.w3.org/2000/svg" xmlns:xlink="http://www.w3.org/1999/xlink" viewBox="0 0 211 188"><defs><style>.cls-1{fill:url(#linear-gradient-4);}.cls-1,.cls-2,.cls-3,.cls-4,.cls-5{stroke:#fff;stroke-width:1.12px;}.cls-2{fill:url(#linear-gradient-3);}.cls-3{fill:url(#linear-gradient-2);}.cls-6{fill:url(#radial-gradient);}.cls-6,.cls-7,.cls-8,.cls-9,.cls-10,.cls-11,.cls-12,.cls-13,.cls-14,.cls-15,.cls-16,.cls-17,.cls-18{stroke-width:0px;}.cls-7{fill:url(#radial-gradient-10);}.cls-8{fill:url(#radial-gradient-2);}.cls-9{fill:url(#radial-gradient-3);}.cls-10{fill:url(#radial-gradient-4);}.cls-11{fill:url(#radial-gradient-6);}.cls-12{fill:url(#radial-gradient-9);}.cls-13{fill:url(#radial-gradient-8);}.cls-14{fill:url(#radial-gradient-5);}.cls-15{fill:url(#radial-gradient-7);}.cls-4{fill:none;stroke-linecap:round;stroke-miterlimit:10;}.cls-16{fill:#fff;isolation:isolate;opacity:.78;}.cls-5{fill:url(#linear-gradient);}.cls-18{fill:#e8d1ac;}</style><linearGradient id="linear-gradient" x1="111.74" y1="45.42" x2="111.68" y2="45.58" gradientUnits="userSpaceOnUse"><stop offset="0" stop-color="#a96e36"/><stop offset=".33" stop-color="#ac7038"/><stop offset=".6" stop-color="#b67841"/><stop offset=".84" stop-color="#c78650"/><stop offset="1" stop-color="#d7945f"/></linearGradient><linearGradient id="linear-gradient-2" x1="118.83" y1="40.11" x2="74.18" y2="156.2" xlink:href="#linear-gradient"/><linearGradient id="linear-gradient-3" x1="111.73" y1="45.1" x2="111.62" y2="45.38" xlink:href="#linear-gradient"/><linearGradient id="linear-gradient-4" x1="111.73" y1="45.6" x2="111.72" y2="45.62" xlink:href="#linear-gradient"/><radialGradient id="radial-gradient" cx="2.16" cy="237.35" fx="2.16" fy="237.35" r="1.12" gradientTransform="translate(611.95 1527.9) rotate(-21.04) scale(6.2 -6.22)" gradientUnits="userSpaceOnUse"><stop offset="0" stop-color="#facec2"/><stop offset=".48" stop-color="#f9ccc0"/><stop offset=".65" stop-color="#f8c5b9"/><stop offset=".77" stop-color="#f7baad"/><stop offset=".86" stop-color="#f5ab9c"/><stop offset=".95" stop-color="#f29786"/><stop offset=".99" stop-color="#f18b7a"/></radialGradient><radialGradient id="radial-gradient-2" cx="-3.97" cy="223.82" fx="-3.97" fy="223.82" r="1.12" gradientTransform="translate(297.97 619.65) rotate(-21.04) scale(2.27 -2.27)" gradientUnits="userSpaceOnUse"><stop offset="0" stop-color="#facec2"/><stop offset=".48" stop-color="#f9ccc0"/><stop offset=".65" stop-color="#f8c5b9"/><stop offset=".77" stop-color="#f7baad"/><stop offset=".86" stop-color="#f5ab9c"/><stop offset=".95" stop-color="#f29786"/><stop offset=".99" stop-color="#f18b7a"/></radialGradient><radialGradient id="radial-gradient-3" cx="-4.6" cy="222.79" fx="-4.6" fy="222.79" r="1.12" gradientTransform="translate(288.85 607.79) rotate(-21.04) scale(2.19 -2.2)" gradientUnits="userSpaceOnUse"><stop offset="0" stop-color="#facec2"/><stop offset=".48" stop-color="#f9ccc0"/><stop offset=".65" stop-color="#f8c5b9"/><stop offset=".77" stop-color="#f7baad"/><stop offset=".86" stop-color="#f5ab9c"/><stop offset=".95" stop-color="#f29786"/><stop offset=".99" stop-color="#f18b7a"/></radialGradient><radialGradient id="radial-gradient-4" cx="-5.05" cy="222.46" fx="-5.05" fy="222.46" r="1.12" gradientTransform="translate(281.61 604.18) rotate(-21.04) scale(2.16 -2.17)" gradientUnits="userSpaceOnUse"><stop offset="0" stop-color="#facec2"/><stop offset=".48" stop-color="#f9ccc0"/><stop offset=".65" stop-color="#f8c5b9"/><stop offset=".77" stop-color="#f7baad"/><stop offset=".86" stop-color="#f5ab9c"/><stop offset=".95" stop-color="#f29786"/><stop offset=".99" stop-color="#f18b7a"/></radialGradient><radialGradient id="radial-gradient-5" cx="-4.85" cy="223.54" fx="-4.85" fy="223.54" r="1.12" gradientTransform="translate(284.09 625.87) rotate(-21.04) scale(2.26 -2.26)" gradientUnits="userSpaceOnUse"><stop offset="0" stop-color="#facec2"/><stop offset=".48" stop-color="#f9ccc0"/><stop offset=".65" stop-color="#f8c5b9"/><stop offset=".77" stop-color="#f7baad"/><stop offset=".86" stop-color="#f5ab9c"/><stop offset=".95" stop-color="#f29786"/><stop offset=".99" stop-color="#f18b7a"/></radialGradient><radialGradient id="radial-gradient-6" cx="-4.18" cy="241.53" fx="-4.18" fy="241.53" r="1.12" gradientTransform="translate(1588.78 615.53) rotate(-68.39) scale(3.97 -6.21)" gradientUnits="userSpaceOnUse"><stop offset="0" stop-color="#facec2"/><stop offset=".48" stop-color="#f9ccc0"/><stop offset=".65" stop-color="#f8c5b9"/><stop offset=".77" stop-color="#f7baad"/><stop offset=".86" stop-color="#f5ab9c"/><stop offset=".95" stop-color="#f29786"/><stop offset=".99" stop-color="#f18b7a"/></radialGradient><radialGradient id="radial-gradient-7" cx="-21.32" cy="235.23" fx="-21.32" fy="235.23" r="1.12" gradientTransform="translate(704.87 242.69) rotate(-68.39) scale(1.45 -2.27)" gradientUnits="userSpaceOnUse"><stop offset="0" stop-color="#facec2"/><stop offset=".48" stop-color="#f9ccc0"/><stop offset=".65" stop-color="#f8c5b9"/><stop offset=".77" stop-color="#f7baad"/><stop offset=".86" stop-color="#f5ab9c"/><stop offset=".95" stop-color="#f29786"/><stop offset=".99" stop-color="#f18b7a"/></radialGradient><radialGradient id="radial-gradient-8" cx="-22.56" cy="234.61" fx="-22.56" fy="234.61" r="1.12" gradientTransform="translate(690.55 239.97) rotate(-68.39) scale(1.4 -2.19)" gradientUnits="userSpaceOnUse"><stop offset="0" stop-color="#facec2"/><stop offset=".48" stop-color="#f9ccc0"/><stop offset=".65" stop-color="#f8c5b9"/><stop offset=".77" stop-color="#f7baad"/><stop offset=".86" stop-color="#f5ab9c"/><stop offset=".95" stop-color="#f29786"/><stop offset=".99" stop-color="#f18b7a"/></radialGradient><radialGradient id="radial-gradient-9" cx="-23.25" cy="234.43" fx="-23.25" fy="234.43" r="1.12" gradientTransform="translate(683.72 241.03) rotate(-68.39) scale(1.39 -2.17)" gradientUnits="userSpaceOnUse"><stop offset="0" stop-color="#facec2"/><stop offset=".48" stop-color="#f9ccc0"/><stop offset=".65" stop-color="#f8c5b9"/><stop offset=".77" stop-color="#f7baad"/><stop offset=".86" stop-color="#f5ab9c"/><stop offset=".95" stop-color="#f29786"/><stop offset=".99" stop-color="#f18b7a"/></radialGradient><radialGradient id="radial-gradient-10" cx="-22.28" cy="235" fx="-22.28" fy="235" r="1.12" gradientTransform="translate(702.06 252.06) rotate(-68.39) scale(1.45 -2.26)" gradientUnits="userSpaceOnUse"><stop offset="0" stop-color="#facec2"/><stop offset=".48" stop-color="#f9ccc0"/><stop offset=".65" stop-color="#f8c5b9"/><stop offset=".77" stop-color="#f7baad"/><stop offset=".86" stop-color="#f5ab9c"/><stop offset=".95" stop-color="#f29786"/><stop offset=".99" stop-color="#f18b7a"/></radialGradient></defs><path class="cls-5" d="m111.72,45.6l-.02-.19c.01.1.02.16.02.19Z"/><path class="cls-3" d="m209.36,79.25c-.45-1.18-1.6-2.31-3.27-3.37-1.66-1.05-3.76-1.97-6.03-2.76-4.53-1.58-9.61-2.59-12.82-2.99-1.69-.21-3.89-.87-6.33-1.74-2.14-.76-4.5-1.69-6.92-2.64-.35-.14-.71-.28-1.06-.42-5.6-2.2-11.31-4.37-15.31-4.85-4.13-.49-8.76-1.51-12.35-2.4-1.8-.45-3.34-.86-4.43-1.17-.55-.15-.98-.28-1.28-.36-.15-.04-.26-.08-.34-.1l-.09-.03h-.02s0,0,0,0h0s0,0,.16-.54l-.16.54-.3-.09-.08-.3h0s0,0,0,0v-.02s-.02-.04-.03-.08c-.02-.07-.05-.17-.1-.31-.09-.27-.23-.66-.42-1.14-.4-.96-1.03-2.28-1.96-3.67-1.88-2.79-4.96-5.89-9.84-7.2-4.94-1.33-8.54-.83-10.89-.03-1.18.4-2.04.89-2.61,1.26-.29.19-.5.35-.63.46-.07.06-.12.1-.15.13-.01,0-.02.02-.02.02,0,0,0,0,0,0h0s0,0,0,0h0s-.13.13-.13.13l-.19.02h0s0,0,0,0h-.01s-.04,0-.04,0c-.04,0-.09.01-.16.02-.14.02-.34.04-.61.07-.53.06-1.29.13-2.25.2-1.9.15-4.55.29-7.53.28-5.93-.02-13.27-.64-18.63-3.1-5.28-2.43-12.72-6.76-18.83-10.47-3.06-1.86-5.78-3.56-7.75-4.8-.98-.62-1.77-1.13-2.32-1.48-.19-.12-.36-.23-.49-.31L-.48,74.23H-.48c.22.22,11.76,11.54,16.45,16.02,9.39,8.96,20.64,19.38,28.17,25.28,7.58,5.94,13.26,11.5,17.88,16.36,1.55,1.63,2.98,3.18,4.32,4.62,2.66,2.88,4.98,5.38,7.23,7.44,1.29,1.18,2.9,2.93,4.71,4.92.6.66,1.23,1.34,1.87,2.03,2.61,2.81,5.55,5.86,8.67,8.43,3.12,2.58,6.36,4.63,9.55,5.5,3.16.86,6.26.54,9.18-1.63,2.98-2.22,4.25-4.54,4.54-6.76.29-2.24-.39-4.45-1.47-6.44-1.08-1.99-2.55-3.71-3.75-4.94-.6-.61-1.13-1.1-1.51-1.44-.19-.17-.34-.29-.45-.38-.05-.04-.09-.08-.12-.1l-.03-.02h0s0,0,0,0l-1.71-1.34-.29-.19,2.43.53-.09.55c.09-.55.09-.55.09-.55h0s.01,0,.01,0h.05s.21.04.21.04c.18.03.45.07.79.12.68.11,1.67.26,2.89.44,2.44.37,5.79.87,9.45,1.39,7.33,1.04,15.88,2.15,20.81,2.45,4.96.3,9.61.48,13.19.19,1.79-.14,3.28-.4,4.4-.81,1.13-.41,1.77-.92,2.03-1.51.1-.23.12-.58-.03-1.1-.15-.51-.44-1.12-.85-1.8-.83-1.36-2.1-2.92-3.51-4.46-2.82-3.08-6.12-5.96-7.28-6.79-1.23-.88-2.88-2.25-4.2-3.4-.66-.57-1.25-1.1-1.67-1.47-.21-.19-.38-.34-.5-.45l-.13-.12-.03-.03h0s0-.01,0-.01h0s-.5-.46-.5-.46l.55-.4h0s0,0,0,0h0s.02-.02.02-.02c.02-.02.06-.04.1-.08.09-.07.23-.18.4-.33.35-.29.84-.72,1.42-1.29,1.17-1.14,2.68-2.82,4.07-4.97,1.39-2.14,2.32-4.42,2.92-6.18.3-.87.5-1.61.64-2.13.07-.26.12-.46.15-.6.02-.07.03-.12.03-.16v-.04s.01,0,.01,0h0s.12-.63.12-.63l.6.2h0s.02,0,.02,0l.07.02c.06.02.15.05.26.08.23.07.56.18.98.31.83.26,2,.6,3.34.96,2.69.72,6.02,1.47,8.71,1.64.15.01.3.02.45.03,2.64.18,5.59.37,8.07.33,1.32-.02,2.48-.11,3.38-.29.94-.19,1.47-.46,1.68-.73,0,0,.03-.04.04-.17.01-.13,0-.32-.02-.55-.07-.48-.24-1.1-.49-1.83-.5-1.45-1.3-3.24-2.16-4.99-.85-1.75-1.75-3.44-2.43-4.7-.34-.63-.63-1.15-.83-1.51-.1-.18-.18-.32-.24-.42l-.06-.11-.02-.03h0s0,0,0,0l-.56-.99,1.12.15h0s.02,0,.02,0h.08c.07.02.17.03.31.05.27.03.66.08,1.16.13.98.1,2.36.23,3.93.31,3.14.18,7.01.21,10.02-.34,1.46-.27,3.66-1.08,6.12-2.26,2.45-1.17,5.13-2.69,7.55-4.33,2.43-1.65,4.57-3.41,5.97-5.07.7-.83,1.2-1.61,1.46-2.32.26-.7.28-1.3.08-1.82Z"/><path class="cls-2" d="m111.7,45.41c-.01-.08-.02-.18-.04-.34l.04.34Z"/><path class="cls-1" d="m111.72,45.6v.03s0,0,0,0c0,0,0-.01,0-.03Z"/><path class="cls-18" d="m121.07,121.47c6.92-2.66,10.37-10.44,7.7-17.38-2.67-6.94-10.44-10.4-17.36-7.74-6.92,2.66-10.37,10.44-7.7,17.38,2.67,6.94,10.44,10.4,17.36,7.74Z"/><path class="cls-17" d="m120.27,119.4c5.78-2.22,8.66-8.72,6.43-14.52-2.23-5.79-8.72-8.69-14.5-6.47-5.78,2.22-8.66,8.72-6.43,14.52,2.23,5.79,8.72,8.69,14.5,6.47Z"/><path class="cls-16" d="m111.88,117.12c14.09,6.96,17.33-14.42,16.96-7.58-.37,6.83-6.22,12.08-13.04,11.69-6.82-.39-12.06-6.26-11.69-13.09.22-4.06,2.31-7.11,3.59-7.84,2.24-1.28-7,10.13,4.19,16.82h0Z"/><path class="cls-16" d="m118.3,104.91c2.04-.79,3.06-3.09,2.27-5.13-.79-2.05-3.09-3.07-5.13-2.29-2.04.79-3.06,3.09-2.27,5.14.79,2.05,3.09,3.07,5.13,2.29Z"/><path class="cls-16" d="m122.85,104.73c.58-.22.86-.87.64-1.45-.22-.58-.87-.87-1.44-.64-.58.22-.86.87-.64,1.45.22.58.87.87,1.44.64Z"/><path class="cls-18" d="m138.75,91.29c6.92-2.66,10.37-10.44,7.7-17.38-2.67-6.94-10.44-10.4-17.36-7.74-6.92,2.66-10.37,10.44-7.7,17.38,2.67,6.94,10.44,10.4,17.36,7.74Z"/><path class="cls-17" d="m137.95,89.22c5.78-2.22,8.66-8.72,6.43-14.52s-8.72-8.69-14.5-6.47c-5.78,2.22-8.66,8.72-6.43,14.52,2.23,5.79,8.72,8.69,14.5,6.47Z"/><path class="cls-16" d="m129.24,87.03c14.09,6.96,17.33-14.42,16.96-7.58-.37,6.83-6.22,12.08-13.04,11.69-6.82-.39-12.06-6.26-11.69-13.09.22-4.06,2.31-7.11,3.59-7.84,2.24-1.28-7,10.13,4.19,16.82h0Z"/><path class="cls-16" d="m135.66,74.83c2.04-.79,3.06-3.09,2.27-5.14-.79-2.05-3.09-3.07-5.13-2.29-2.04.79-3.06,3.09-2.27,5.14.79,2.05,3.08,3.07,5.13,2.29Z"/><path class="cls-16" d="m140.21,74.64c.58-.22.86-.87.64-1.45-.22-.58-.87-.87-1.44-.64-.58.22-.86.87-.64,1.45.22.58.87.87,1.45.64Z"/><path class="cls-6" d="m97.3,152.57c3.59-1.38,5.38-5.42,3.99-9.01-1.38-3.6-5.41-5.39-9-4.02-3.59,1.38-5.38,5.42-3.99,9.01,1.38,3.6,5.41,5.39,9,4.02Z"/><path class="cls-8" d="m107.73,150.16c1.31-.51,1.97-1.98,1.46-3.3-.51-1.32-1.98-1.97-3.29-1.47-1.31.51-1.97,1.98-1.46,3.3.51,1.32,1.98,1.97,3.29,1.47Z"/><path class="cls-9" d="m104.69,157.06c1.27-.49,1.9-1.91,1.41-3.18-.49-1.27-1.91-1.91-3.18-1.42-1.27.49-1.9,1.91-1.41,3.18.49,1.27,1.91,1.91,3.18,1.42Z"/><path class="cls-10" d="m99.12,160.18c1.25-.48,1.88-1.89,1.39-3.14-.48-1.26-1.89-1.88-3.14-1.4-1.25.48-1.88,1.89-1.39,3.14.48,1.25,1.89,1.88,3.14,1.4Z"/><path class="cls-14" d="m93.1,159.85c1.31-.5,1.96-1.97,1.45-3.28-.5-1.31-1.97-1.96-3.28-1.46-1.31.5-1.96,1.97-1.45,3.28.5,1.31,1.97,1.96,3.28,1.46Z"/><path class="cls-11" d="m195.49,80.87c.91-2.3-1.25-5.32-4.82-6.75s-7.21-.72-8.12,1.58c-.91,2.3,1.25,5.32,4.82,6.75,3.57,1.43,7.21.72,8.12-1.58Z"/><path class="cls-15" d="m199.39,75.08c.33-.84-.46-1.95-1.76-2.47-1.31-.52-2.64-.26-2.97.58-.33.84.46,1.95,1.76,2.47,1.31.52,2.64.26,2.97-.58Z"/><path class="cls-13" d="m203.09,80.24c.32-.81-.44-1.88-1.7-2.38-1.26-.5-2.55-.25-2.87.56-.32.81.44,1.88,1.7,2.38s2.55.25,2.87-.56Z"/><path class="cls-12" d="m202.44,84.36c.32-.8-.43-1.86-1.68-2.35-1.25-.5-2.52-.25-2.83.55-.32.8.44,1.86,1.68,2.35,1.25.5,2.52.25,2.83-.55Z"/><path class="cls-7" d="m198.85,86.74c.33-.84-.45-1.94-1.76-2.46-1.3-.52-2.63-.26-2.96.58-.33.84.45,1.94,1.76,2.46,1.3.52,2.63.26,2.96-.58Z"/><path class="cls-4" d="m125.29,54.35l6.84-7.26"/><path class="cls-4" d="m129.74,58.88l11.2-5.57"/><path class="cls-4" d="m92.09,115.21l-1.14,9.92"/><path class="cls-4" d="m98.41,115.71l2.95,12.19"/></svg>