<?xml version="1.0" encoding="UTF-8"?><svg id="Layer_1" xmlns="http://www.w3.org/2000/svg" viewBox="0 0 20 20"><defs><style>.cls-1{fill:#fff;stroke-width:0px;}</style></defs><rect class="cls-1" x="5.58" y=".74" width="17.54" height="17.54" rx="2.88" ry="2.88"/><path class="cls-1" d="m16.17,5.86c1.04,0,1.88.84,1.88,1.88v11.78c0,1.04-.84,1.88-1.88,1.88H4.4c-1.04,0-1.88-.84-1.88-1.88V7.74c0-1.04.84-1.88,1.88-1.88h11.78m0-1H4.4c-1.59,0-2.88,1.29-2.88,2.88v11.78c0,1.59,1.29,2.88,2.88,2.88h11.78c1.59,0,2.88-1.29,2.88-2.88V7.74c0-1.59-1.29-2.88-2.88-2.88h0Z"/></svg>