<?xml version="1.0" encoding="UTF-8"?><svg id="Layer_1" xmlns="http://www.w3.org/2000/svg" xmlns:xlink="http://www.w3.org/1999/xlink" viewBox="0 0 231 309"><defs><style>.cls-1{fill:none;}.cls-1,.cls-2,.cls-3,.cls-4,.cls-5{stroke-width:0px;}.cls-2{fill:url(#radial-gradient);}.cls-3{fill:url(#radial-gradient-2);}.cls-6{stroke-width:3.88px;}.cls-6,.cls-7,.cls-8{stroke:#fff;}.cls-6,.cls-7,.cls-4{fill:#a76a33;}.cls-6,.cls-8{stroke-miterlimit:10;}.cls-7{stroke-miterlimit:10;stroke-width:3.88px;}.cls-8{fill:#e7d1ac;stroke-width:1.62px;}.cls-5{fill:#fff;}</style><radialGradient id="radial-gradient" cx="221.67" cy="203.94" fx="193.19" fy="203.94" r="28.48" gradientTransform="translate(-114.37 260.55) rotate(-4.49) scale(1 -.83)" gradientUnits="userSpaceOnUse"><stop offset="0" stop-color="#f9cec1"/><stop offset=".48" stop-color="#f8ccbf"/><stop offset=".65" stop-color="#f7c5b8"/><stop offset=".77" stop-color="#f6baac"/><stop offset=".87" stop-color="#f4aa9b"/><stop offset=".95" stop-color="#f19585"/><stop offset=".99" stop-color="#f08a7a"/></radialGradient><radialGradient id="radial-gradient-2" cx="79.24" cy="34.62" fx="79.24" fy="34.62" r="45.17" gradientTransform="translate(95.43 86.58) rotate(89.25) scale(1 -.86)" gradientUnits="userSpaceOnUse"><stop offset="0" stop-color="#f9cec1"/><stop offset=".48" stop-color="#f8ccbf"/><stop offset=".65" stop-color="#f7c5b8"/><stop offset=".77" stop-color="#f6baac"/><stop offset=".87" stop-color="#f4aa9b"/><stop offset=".95" stop-color="#f19585"/><stop offset=".99" stop-color="#f08a7a"/></radialGradient></defs><path class="cls-6" d="m172.87,315.04s-4.67-24.48-3.35-72.59,11.28-82.04-4.35-106.17c-15.64-24.13-37.44-39.54-37.44-39.54,0,0,3.98-10.26-.81-38.17s-26.05-35.99-43.15-34.34c-13.22,1.27-41.17,18.05-38.14,50.35,1.19,12.74,3.22,15.87,3.22,15.87,0,0-48.59,62.03-35.58,161.53,5.19,41.2,13.61,63.76,13.61,63.76"/><path class="cls-4" d="m118.92,103.51c7.54-9.19,11.94-21.64,11.41-35.18-1.07-27.09-21.45-48.28-45.53-47.33-24.08.95-42.73,23.67-41.67,50.76.37,9.32,3.02,17.93,7.32,25.19"/><path class="cls-5" d="m118.92,103.51c6.85-10.02,9.32-21.72,9.49-33.46,0-.8-.07-2.37-.16-3.16l-.26-3.16c-.22-1.5-.57-3.17-.81-4.68-.25-1-.95-3.55-1.22-4.58-.39-1.08-1.25-3.42-1.65-4.45-1.91-4.26-4.33-8.52-7.37-12.07-12.27-15.15-33.83-19.87-50.56-9.23-10.73,6.65-17.98,18.29-20.31,30.61-2.18,12.62-1.3,25.77,4.38,37.62-5.97-8.45-9.76-19.31-9.23-29.95.03-1.09.36-3.94.45-5.08,5.2-38.36,47.13-58,76-29.03,2.2,2.47,4.57,5.26,6.25,8.08,1.51,2.39,2.8,4.99,3.96,7.53.46,1.1,1.34,3.65,1.77,4.79.28,1.12,1.07,3.83,1.32,4.93.51,2.72,1.01,5.61,1.15,8.41,1.41,13.43-3.89,27.46-13.21,36.89h.01Z"/><ellipse class="cls-2" cx="93.36" cy="74.34" rx="27.47" ry="22.57" transform="translate(12.52 162.13) rotate(-85.89)"/><ellipse class="cls-3" cx="126.24" cy="165.43" rx="35.36" ry="43.51" transform="translate(-37.83 37.42) rotate(-14.69)"/><ellipse class="cls-7" cx="184.38" cy="192.81" rx="42.68" ry="37.47" transform="translate(-29.96 33.97) rotate(-9.74)"/><ellipse class="cls-7" cx="164.1" cy="150" rx="42.68" ry="37.47" transform="translate(-23.01 29.92) rotate(-9.74)"/><ellipse class="cls-7" cx="155.72" cy="104.14" rx="42.68" ry="37.47" transform="translate(-15.37 27.85) rotate(-9.74)"/><path class="cls-8" d="m70.05,24.2l1.72-16.48c.22-2.09,2.95-2.72,4.07-.95l8.96,14.23"/><path class="cls-8" d="m119,125.1c-4.07,1.55-9.12,2.32-14.81,2.59-2.64.13-3.97-3.13-1.99-4.89,4.12-3.67,7.66-7.45,10.44-11.39"/><path class="cls-8" d="m127.07,169.48c-4.14,1.35-9.22,1.87-14.91,1.87-2.64,0-3.81-3.32-1.75-4.98,4.29-3.47,8.01-7.08,10.98-10.87"/><path class="cls-8" d="m146.74,213.5c-4.18,1.21-9.28,1.56-14.97,1.36-2.64-.09-3.69-3.45-1.58-5.04,4.41-3.32,8.25-6.8,11.34-10.49"/><circle class="cls-1" cx="114.25" cy="143.45" r="166.16"/></svg>